<?xml version="1.0" encoding="UTF-8" standalone="no"?>
<svg
   id="Layer_2"
   data-name="Layer 2"
   viewBox="0 0 636.38 367.26"
   version="1.1"
   sodipodi:docname="logo_icon.svg"
   inkscape:version="1.2.2 (1:1.2.2+202212051551+b0a8486541)"
   xmlns:inkscape="http://www.inkscape.org/namespaces/inkscape"
   xmlns:sodipodi="http://sodipodi.sourceforge.net/DTD/sodipodi-0.dtd"
   xmlns:xlink="http://www.w3.org/1999/xlink"
   xmlns="http://www.w3.org/2000/svg"
   xmlns:svg="http://www.w3.org/2000/svg">
  <sodipodi:namedview
     id="namedview157"
     pagecolor="#ffffff"
     bordercolor="#000000"
     borderopacity="0.25"
     inkscape:showpageshadow="2"
     inkscape:pageopacity="0.0"
     inkscape:pagecheckerboard="0"
     inkscape:deskcolor="#d1d1d1"
     showgrid="false"
     inkscape:zoom="0.33218972"
     inkscape:cx="222.76427"
     inkscape:cy="194.16615"
     inkscape:window-width="1366"
     inkscape:window-height="654"
     inkscape:window-x="0"
     inkscape:window-y="27"
     inkscape:window-maximized="1"
     inkscape:current-layer="Layer_2" />
  <defs
     id="defs106">
    <style
       id="style2">.cls-1{fill:url(#White_Black);}.cls-2{fill:url(#White_Black-2);}.cls-3{fill:url(#linear-gradient);}.cls-4{fill:url(#White_Black-3);}.cls-5{fill:url(#linear-gradient-2);}.cls-6{fill:url(#linear-gradient-3);}.cls-7{fill:url(#linear-gradient-4);}.cls-8{fill:url(#linear-gradient-5);}.cls-9{fill:url(#linear-gradient-6);}.cls-10{fill:url(#linear-gradient-7);}.cls-11{fill:url(#linear-gradient-8);}.cls-12{fill:none;clip-rule:evenodd;}.cls-13{mask:url(#mask);}.cls-14{mask:url(#mask-2);}.cls-15{mask:url(#mask-3);}.cls-16{clip-path:url(#clip-path);}.cls-17{fill:url(#linear-gradient-9);}.cls-18{clip-path:url(#clip-path-2);}.cls-19{fill:url(#linear-gradient-10);}.cls-20{clip-path:url(#clip-path-3);}.cls-21{fill:url(#linear-gradient-11);}.cls-22{clip-path:url(#clip-path-4);}.cls-23{fill:url(#linear-gradient-12);}.cls-24{mask:url(#mask-4);}.cls-25{fill:#f1c30f;}.cls-25,.cls-27,.cls-29,.cls-31,.cls-33,.cls-35,.cls-37{fill-rule:evenodd;}.cls-26{mask:url(#mask-5);}.cls-27{fill:#fa5c98;}.cls-28{mask:url(#mask-6);}.cls-29{fill:#3e6bbd;}.cls-30{mask:url(#mask-7);}.cls-31{fill:#004790;}.cls-32{mask:url(#mask-8);}.cls-33{fill:#5e147d;}.cls-34{mask:url(#mask-9);}.cls-35{fill:#fde3a7;}.cls-36{mask:url(#mask-10);}.cls-37{fill:#ffbcd8;}.cls-38{mask:url(#mask-11);}</style>
    <linearGradient
       id="White_Black"
       x1="-2138.9"
       y1="1087.01"
       x2="-2289.64"
       y2="985.74"
       gradientTransform="translate(668.36 -348.47) rotate(-180)"
       gradientUnits="userSpaceOnUse">
      <stop
         offset="0"
         stop-color="#fff"
         id="stop4" />
      <stop
         offset="1"
         stop-color="#231f20"
         id="stop6" />
    </linearGradient>
    <linearGradient
       id="White_Black-2"
       x1="3896.96"
       y1="1429.35"
       x2="3411.13"
       y2="1102.96"
       gradientTransform="translate(-2225.15 -4460.11) rotate(90)"
       xlink:href="#White_Black" />
    <linearGradient
       id="linear-gradient"
       x1="-583.33"
       y1="1091.85"
       x2="-42.85"
       y2="814.34"
       gradientTransform="translate(733.54 -656.75)"
       gradientUnits="userSpaceOnUse">
      <stop
         offset="0"
         stop-color="#fff"
         id="stop10" />
      <stop
         offset="1"
         id="stop12" />
    </linearGradient>
    <linearGradient
       id="White_Black-3"
       x1="4217.82"
       y1="300.42"
       x2="3731.99"
       y2="-25.97"
       gradientTransform="translate(-7226.66 -1558.42)"
       xlink:href="#White_Black" />
    <linearGradient
       id="linear-gradient-2"
       x1="-193.22"
       y1="431.66"
       x2="-251.35"
       y2="1011.38"
       gradientTransform="translate(380.44 -623.54)"
       xlink:href="#linear-gradient" />
    <linearGradient
       id="linear-gradient-3"
       x1="25.42"
       y1="636.74"
       x2="-286.55"
       y2="973.82"
       gradientTransform="translate(487.79 -695.31)"
       xlink:href="#linear-gradient" />
    <linearGradient
       id="linear-gradient-4"
       x1="-268.86"
       y1="705.34"
       x2="-270.91"
       y2="1038.28"
       gradientTransform="translate(733.54 -664.56)"
       xlink:href="#linear-gradient" />
    <linearGradient
       id="linear-gradient-5"
       x1="-401.22"
       y1="1001.45"
       x2="-164.78"
       y2="819.71"
       gradientTransform="translate(770.61 -849.38)"
       xlink:href="#linear-gradient" />
    <linearGradient
       id="linear-gradient-6"
       x1="-336.52"
       y1="937.94"
       x2="-135.96"
       y2="997.64"
       gradientTransform="translate(487.79 -695.27)"
       xlink:href="#linear-gradient" />
    <linearGradient
       id="linear-gradient-7"
       x1="-15.85"
       y1="855.26"
       x2="-387.07"
       y2="1017.26"
       gradientTransform="translate(463.68 -913.34)"
       xlink:href="#linear-gradient" />
    <linearGradient
       id="linear-gradient-8"
       x1="-154.65"
       y1="940.74"
       x2="-403.1"
       y2="1011.58"
       gradientTransform="translate(797.06 -966.4)"
       xlink:href="#linear-gradient" />
    <mask
       id="mask"
       x="2855.39"
       y="-1397.08"
       width="168.2"
       height="109.01"
       maskUnits="userSpaceOnUse">
      <g
         transform="translate(0 4.03)"
         id="g25">
        <rect
           class="cls-1"
           x="2860.36"
           y="-1391.65"
           width="158.25"
           height="90.1"
           transform="translate(189.55 353.92) rotate(-7.12)"
           id="rect23" />
      </g>
    </mask>
    <mask
       id="mask-2"
       x="-3544.08"
       y="-1256.2"
       width="351.34"
       height="542.08"
       maskUnits="userSpaceOnUse">
      <g
         transform="translate(0 4.03)"
         id="g30">
        <rect
           class="cls-2"
           x="-3513.6"
           y="-1244.2"
           width="290.37"
           height="510.03"
           transform="translate(96.62 -425.08) rotate(-7.12)"
           id="rect28" />
      </g>
    </mask>
    <mask
       id="mask-3"
       x="-3705.89"
       y="-1715.73"
       width="542.08"
       height="351.34"
       maskUnits="userSpaceOnUse">
      <g
         transform="translate(0 4.03)"
         id="g35">
        <rect
           class="cls-4"
           x="-3689.86"
           y="-1689.28"
           width="510.03"
           height="290.37"
           transform="translate(164.88 -437.59) rotate(-7.12)"
           id="rect33" />
      </g>
    </mask>
    <clipPath
       id="clip-path"
       transform="translate(0 4.03)">
      <path
         class="cls-12"
         d="M454.76,90.08a91.54,91.54,0,0,1,0,183.07c-61.34,0-65.95-11.81-117.93,46.57a180.9,180.9,0,0,0,117.93,43.51c100.3,0,181.62-81.32,181.62-181.62A181.57,181.57,0,0,0,542.8,22.73C373.56-4,353.46,143.3,372.19,147.79c9.74-32.53,29.82-57.71,82.57-57.71"
         id="path38" />
    </clipPath>
    <linearGradient
       id="linear-gradient-9"
       x1="405.82"
       y1="8.41"
       x2="573.35"
       y2="371.77"
       gradientUnits="userSpaceOnUse">
      <stop
         offset="0"
         stop-color="#0070ad"
         id="stop41" />
      <stop
         offset="1"
         stop-color="#fa5ced"
         id="stop43" />
    </linearGradient>
    <clipPath
       id="clip-path-2"
       transform="translate(0 4.03)">
      <path
         class="cls-12"
         d="M544.69,164.5a91.6,91.6,0,0,1-89.93,108.65c-59.94,0-65.72-11.26-114.47,42.71l11.5,15.36h0c.21,0,206.25,12.06,234.34-112.22,7.21-31.92-10.78-48.08-41.45-54.51"
         id="path46" />
    </clipPath>
    <linearGradient
       id="linear-gradient-10"
       x1="361.26"
       y1="28.96"
       x2="528.78"
       y2="392.32"
       xlink:href="#linear-gradient-9" />
    <clipPath
       id="clip-path-3"
       transform="translate(0 4.03)">
      <path
         class="cls-12"
         d="M279.7,133.11c-18,65-1.94,140-98.09,140-32.53,0-63-17.31-79.21-42.88,16.37,47.79,72.45,110.89,231.18,50.84a181.75,181.75,0,0,0,27.56-71.9c3.15-20.6,5.31-42.28,11.05-61.42,0,0,31.2-144.66,170.61-125.06A181.74,181.74,0,0,0,279.7,133.11"
         id="path50" />
    </clipPath>
    <linearGradient
       id="linear-gradient-11"
       x1="477.57"
       y1="-40.66"
       x2="238.51"
       y2="291.41"
       gradientUnits="userSpaceOnUse">
      <stop
         offset="0"
         stop-color="#fa5c98"
         id="stop53" />
      <stop
         offset="1"
         stop-color="#8e44ad"
         id="stop55" />
    </linearGradient>
    <clipPath
       id="clip-path-4"
       transform="translate(0 4.03)">
      <path
         class="cls-12"
         d="M333.58,281.11C251,304.74,115.23,308.84,92.11,200.88a91.62,91.62,0,0,1,89.5-110.8c66.28,0,45.13,35.19,117.93-46.57A180.88,180.88,0,0,0,181.61,0C81.32,0,0,81.32,0,181.61S81.32,363.23,181.61,363.23a182,182,0,0,0,152-82.12"
         id="path58" />
    </clipPath>
    <linearGradient
       id="linear-gradient-12"
       x1="211.81"
       y1="3.38"
       x2="121.72"
       y2="368.07"
       gradientUnits="userSpaceOnUse">
      <stop
         offset="0"
         stop-color="#f1c40f"
         id="stop61" />
      <stop
         offset="1"
         stop-color="#da3c78"
         id="stop63" />
    </linearGradient>
    <mask
       id="mask-4"
       x="0"
       y="4.03"
       width="299.54"
       height="363.23"
       maskUnits="userSpaceOnUse">
      <g
         transform="translate(0 4.03)"
         id="g68">
        <rect
           class="cls-5"
           width="299.54"
           height="363.23"
           id="rect66" />
      </g>
    </mask>
    <mask
       id="mask-5"
       x="102.4"
       y="4.03"
       width="440.4"
       height="294.77"
       maskUnits="userSpaceOnUse">
      <g
         transform="translate(0 4.03)"
         id="g73">
        <rect
           class="cls-6"
           x="102.4"
           width="440.4"
           height="294.77"
           id="rect71" />
      </g>
    </mask>
    <mask
       id="mask-6"
       x="336.83"
       y="53.7"
       width="253.92"
       height="274.42"
       maskUnits="userSpaceOnUse">
      <g
         transform="translate(0 4.03)"
         id="g78">
        <rect
           class="cls-7"
           x="336.83"
           y="49.68"
           width="253.92"
           height="274.42"
           id="rect76" />
      </g>
    </mask>
    <mask
       id="mask-7"
       x="372.19"
       y="24.93"
       width="170.61"
       height="126.89"
       maskUnits="userSpaceOnUse">
      <g
         transform="translate(0 4.03)"
         id="g83">
        <rect
           class="cls-8"
           x="372.19"
           y="20.9"
           width="170.61"
           height="126.89"
           id="rect81" />
      </g>
    </mask>
    <mask
       id="mask-8"
       x="102.4"
       y="234.29"
       width="231.18"
       height="64.54"
       maskUnits="userSpaceOnUse">
      <g
         transform="translate(0 4.03)"
         id="g88">
        <rect
           class="cls-9"
           x="102.4"
           y="230.27"
           width="231.18"
           height="64.54"
           id="rect86" />
      </g>
    </mask>
    <mask
       id="mask-9"
       x="79.4"
       y="26.58"
       width="220.15"
       height="64.23"
       maskUnits="userSpaceOnUse">
      <g
         transform="translate(0 4.03)"
         id="g93">
        <rect
           class="cls-10"
           x="79.4"
           y="22.55"
           width="220.15"
           height="64.23"
           id="rect91" />
      </g>
    </mask>
    <mask
       id="mask-10"
       x="397.42"
       y="14.79"
       width="145.38"
       height="25.4"
       maskUnits="userSpaceOnUse">
      <g
         transform="translate(0 4.03)"
         id="g98">
        <rect
           class="cls-11"
           x="397.42"
           y="10.77"
           width="145.38"
           height="25.4"
           id="rect96" />
      </g>
    </mask>
    <mask
       id="mask-11"
       x="336.83"
       y="223.04"
       width="249.31"
       height="112.54"
       maskUnits="userSpaceOnUse">
      <g
         transform="translate(0 4.03)"
         id="g103">
        <rect
           class="cls-3"
           x="336.83"
           y="219.01"
           width="249.31"
           height="112.54"
           id="rect101" />
      </g>
    </mask>
  </defs>
  <path
     style="fill:#ffffff;stroke-width:0.971709"
     d="m 49.199807,373.95941 c -2.1758,-1.73253 -0.35822,-3.66483 4.205993,-4.47152 1.882724,-0.33276 3.850502,-1.10968 4.372852,-1.72651 0.52235,-0.61684 3.326657,-1.35708 6.231819,-1.64498 6.095741,-0.6041 36.095199,-6.94069 41.331659,-8.73023 1.94193,-0.66362 7.14507,-1.76053 11.56253,-2.43758 4.41748,-0.67704 10.18765,-1.91933 12.8226,-2.76062 2.63491,-0.84133 7.26184,-1.52968 10.28204,-1.52968 3.94333,0 8.84999,-1.00094 17.40631,-3.55086 6.55325,-1.95297 13.54346,-3.55258 15.5338,-3.55468 1.99034,-0.003 4.78105,-0.54182 6.2016,-1.19936 3.25979,-1.50891 15.36783,-3.9629 25.29214,-5.12608 4.19125,-0.49124 10.91486,-1.57578 14.94137,-2.41012 4.02651,-0.83434 8.58803,-1.52155 10.13666,-1.52715 1.54864,-0.005 4.31511,-0.84398 6.1477,-1.86303 3.44215,-1.9141 14.53784,-3.51272 28.1483,-4.05552 4.01903,-0.16021 9.13682,-1.07273 12.97198,-2.31274 3.48377,-1.1264 8.02093,-2.04799 10.08258,-2.04799 5.01394,0 14.04693,-1.45012 19.91945,-3.19781 2.62968,-0.78262 6.93279,-1.67546 9.56247,-1.98411 2.62969,-0.30867 6.87506,-1.25715 9.43414,-2.10777 5.82604,-1.93655 11.5524,-2.43344 15.7857,-1.3698 3.66253,0.92025 14.77278,-0.45455 27.37373,-3.38721 3.94452,-0.91805 9.39655,-1.69344 12.11562,-1.72311 3.7059,-0.0405 5.52218,-0.52572 7.25406,-1.93819 2.05806,-1.67848 3.73706,-1.96201 15.3765,-2.59652 7.18643,-0.39176 14.9488,-1.05261 17.24977,-1.46856 2.30097,-0.41594 6.9047,-0.75825 10.23049,-0.76068 3.45665,-0.003 7.04082,-0.5012 8.36717,-1.16418 1.47427,-0.73691 5.16508,-1.16892 10.12263,-1.18489 5.03972,-0.0172 8.73364,-0.45619 10.43239,-1.24251 3.51641,-1.6277 13.10328,-3.50304 17.96172,-3.51363 2.15773,-0.005 5.8741,-0.54726 8.25854,-1.20566 2.70835,-0.74784 5.85138,-1.00916 8.37483,-0.69633 2.83905,0.35199 5.5354,0.0271 9.07344,-1.09326 8.42958,-2.66931 13.64624,-3.44483 22.07292,-3.28136 10.05228,0.19501 22.67464,-0.65519 31.71378,-2.13614 5.1794,-0.84856 8.03177,-0.9286 11.35545,-0.31857 6.20832,1.13948 8.3056,1.03032 10.73768,-0.55892 2.28779,-1.49492 17.0094,-2.3415 17.0094,-0.97815 0,1.19387 -4.34663,2.36053 -8.79453,2.36053 -2.70457,0 -5.4187,0.69412 -7.72181,1.97482 -3.21015,1.7851 -4.58086,1.97482 -14.26717,1.97482 -9.62141,0 -11.40355,0.24266 -17.45027,2.37495 -6.06105,2.13745 -7.24336,2.29739 -11.82255,1.59919 -9.49142,-1.44718 -12.47051,-1.10474 -13.89584,1.59733 -1.13204,2.14605 -1.55096,2.31316 -3.80228,1.51689 -2.00756,-0.71 -2.96108,-0.6371 -4.61658,0.35303 -2.63947,1.57857 -3.69123,1.58 -3.69123,0.005 0,-0.75844 -0.81527,-1.13906 -2.09179,-0.97661 -1.15048,0.14639 -2.09179,0.71867 -2.09179,1.27165 0,2.35344 -8.09882,3.39173 -12.4497,1.59607 -2.34341,-0.96716 -2.1111,-1.03357 -10.70019,3.05879 -2.58773,1.23294 -2.94947,1.23991 -4.23154,0.0812 -1.17484,-1.0618 -2.26538,-1.1356 -6.73284,-0.45572 -2.93203,0.44619 -7.43486,0.79959 -10.00638,0.78531 -2.57148,-0.0148 -5.46477,0.49569 -6.42949,1.13324 -1.01392,0.67005 -2.57163,0.92619 -3.69172,0.60705 -4.92336,-1.40286 -8.67633,-1.20575 -14.67854,0.77087 -4.21672,1.38898 -8.19052,2.06046 -12.19144,2.06046 -4.201,0 -7.45101,0.58687 -11.12075,2.00813 l -5.1851,2.00812 v -2.00812 c 0,-2.67774 -1.58263,-2.53464 -8.36717,0.75663 -4.34932,2.10995 -6.87336,2.76475 -10.65678,2.76475 -2.72672,0 -8.21468,0.7251 -12.19548,1.61133 -3.98082,0.88625 -8.30552,1.38741 -9.61043,1.1137 -1.39234,-0.29202 -3.20141,-0.005 -4.37872,0.69731 -2.0749,1.23592 -11.53794,3.65531 -14.37619,3.67555 -0.88681,0.008 -3.40837,0.57472 -5.60347,1.26309 -2.84805,0.89314 -4.59973,1.02654 -6.11598,0.46577 -1.55177,-0.57389 -3.32629,-0.3808 -6.57932,0.71595 -2.44998,0.826 -5.2439,1.30163 -6.2087,1.05695 -0.96484,-0.24463 -3.44331,0.13231 -5.5078,0.83789 -2.06444,0.7055 -4.72648,1.07867 -5.91566,0.82925 -1.21712,-0.25529 -2.82227,0.0721 -3.67255,0.74922 -0.83074,0.6615 -2.72343,1.20273 -4.20596,1.20273 -1.48256,0 -3.34428,0.51656 -4.13715,1.14791 -0.7929,0.63135 -2.87584,1.13568 -4.62875,1.12071 -6.25016,-0.0533 -14.54262,1.11099 -14.54262,2.04192 0,0.60005 -1.30356,0.81891 -3.56887,0.59918 -2.38048,-0.2308 -6.13649,0.47224 -11.28012,2.11163 -4.43315,1.41297 -9.64883,2.46269 -12.26899,2.4693 -2.50678,0.008 -6.96298,0.56492 -9.90269,1.24133 -2.93971,0.6764 -8.18414,1.22982 -11.65426,1.22982 -3.47013,0 -6.30932,0.25925 -6.30932,0.57608 0,1.21309 -11.05311,4.0518 -15.86983,4.07576 -2.77644,0.0148 -6.09218,0.54704 -7.36833,1.1849 -2.60252,1.30086 -12.62112,1.59444 -12.62112,0.36983 0,-1.53449 -3.33689,-0.76379 -5.3102,1.2265 -1.82352,1.83917 -2.48101,1.96865 -7.48117,1.47313 -4.64221,-0.46005 -5.77611,-0.30103 -7.40192,1.03812 -2.2935,1.88915 -8.61167,3.40998 -11.84494,2.8512 -1.47774,-0.25536 -3.43828,0.33928 -5.40609,1.63973 -2.28349,1.50908 -4.324,2.04041 -7.83577,2.04041 -2.911,0 -8.27797,1.07746 -13.87042,2.78458 -10.49279,3.20298 -17.37575,4.9506 -23.32582,5.92249 -4.39612,0.7181 -10.576054,1.77004 -21.515559,3.66241 -3.615811,0.6255 -10.60837,2.04362 -15.53902,3.15143 -11.888694,2.67109 -20.497833,3.22478 -22.713114,1.46077 z m 8.666402,-34.53486 c -1.480241,-0.47173 -4.167408,-2.8471 -5.971578,-5.27855 -6.978327,-9.40481 -4.381555,-29.03574 6.794997,-51.36831 6.465464,-12.91898 12.50114,-22.01706 28.8576,-43.49947 20.681052,-27.16222 24.782192,-35.01489 19.338462,-37.02817 -3.17538,-1.17438 -0.97045,-1.94088 6.62783,-2.3041 13.56441,-0.64841 20.56331,3.62923 18.78198,11.47935 -0.4666,2.05621 -6.29297,10.66812 -14.32642,21.17577 -31.677486,41.43349 -46.821567,71.50986 -38.347088,76.1578 2.061274,1.13054 8.858325,-2.22469 18.297084,-9.03201 8.376654,-6.04133 29.916154,-24.3733 39.932514,-33.986 3.62164,-3.47569 8.82942,-8.45225 11.57284,-11.05901 22.223,-21.11616 51.90588,-51.99976 55.69269,-57.94558 3.5354,-5.55099 3.92312,-9.39762 1.08546,-10.76885 -3.49325,-1.68805 -0.60827,-2.77418 7.36878,-2.77418 9.06037,0 13.29704,1.10275 15.61435,4.06419 3.76661,4.81361 1.73779,11.21078 -7.85504,24.76822 -4.54797,6.42758 -16.67098,25.32319 -22.04591,34.36194 -8.42696,14.17123 -14.77406,29.11413 -15.85364,37.32417 -0.61739,4.69487 -0.45561,5.33202 1.35391,5.33202 5.13224,0 31.87078,-19.94133 49.44967,-36.87907 11.10696,-10.70184 17.45072,-18.16401 46.85465,-55.11492 8.65349,-10.87459 46.82119,-61.36583 53.06908,-70.20395 12.99323,-18.37998 22.52807,-32.986324 21.83296,-33.445692 -0.90231,-0.596298 -11.13752,2.19277 -32.46591,8.846892 -8.54642,2.66636 -17.95948,5.52195 -20.91786,6.34575 -19.16526,5.33684 -36.8583,12.5509 -49.3823,20.13488 -12.76221,7.72826 -18.01215,13.82244 -15.05414,17.47507 1.32552,1.63676 1.20428,1.66919 -4.35672,1.16549 -3.14608,-0.28499 -8.09144,-1.43653 -10.98973,-2.559 -6.03646,-2.33784 -12.25595,-8.20805 -12.25595,-11.56768 0,-8.24215 19.38261,-19.01634 54.38656,-30.23183 20.18402,-6.467109 36.67682,-10.664893 71.19078,-18.119607 15.48777,-3.345253 28.72757,-6.323066 29.42179,-6.617363 1.3567,-0.575193 10.87824,-16.728018 14.01981,-23.783916 2.41908,-5.433284 2.43821,-10.263506 0.0493,-12.517224 -1.50661,-1.421528 -3.04206,-1.761938 -8.06834,-1.788797 l -6.20757,-0.03308 8.58911,-5.379321 c 5.15286,-3.227258 11.83271,-6.445283 16.69671,-8.04373 7.01595,-2.305607 9.31983,-2.667049 17.11004,-2.684255 10.58181,-0.02468 16.48603,1.851324 19.63294,6.233878 3.89092,5.418743 0.99025,17.940165 -7.50583,32.400221 -2.02515,3.446783 -3.45366,6.417881 -3.1744,6.602429 0.27903,0.184646 8.47298,-0.930216 18.20832,-2.477219 49.44856,-7.857628 106.52633,-13.805945 152.17295,-15.858602 12.76425,-0.573983 6.87029,0.611282 -15.33854,3.084552 -42.85572,4.772557 -93.9829,12.551931 -133.47744,20.309534 -11.17615,2.195239 -22.28132,4.33659 -24.67817,4.758535 -4.76981,0.839721 -3.36073,-0.774353 -17.77896,20.365026 -12.16593,17.837159 -31.82137,43.204229 -49.5776,63.984299 -31.18125,36.49131 -50.36331,61.0535 -66.84349,85.59146 -10.71505,15.95406 -15.28386,25.06215 -15.96466,31.82609 -0.51514,5.11805 -0.34665,5.68893 1.8138,6.14207 1.30999,0.27475 3.93201,0.12121 5.82673,-0.34114 5.00349,-1.22106 19.508,-11.59043 31.47615,-22.50246 9.13265,-8.32677 28.28105,-27.01397 29.94268,-29.22149 0.32946,-0.43773 3.05252,-3.28411 6.05118,-6.32534 5.03703,-5.10848 10.73227,-11.28664 26.5787,-28.83243 20.70324,-22.92337 48.07017,-41.70083 79.13017,-54.29408 25.08558,-10.17096 52.49903,-11.87275 66.62785,-4.13613 8.1975,4.48878 9.84725,12.9766 4.33714,22.31458 -5.40597,9.16153 -24.97068,24.26671 -31.431,24.26671 -1.69236,0 -3.13686,-0.44434 -3.20996,-0.98741 -0.0732,-0.54308 -0.2174,-3.83116 -0.32012,-7.30685 -0.13633,-4.60169 -0.89032,-7.33365 -2.77397,-10.05055 -8.30699,-11.98172 -28.83067,-8.2031 -58.80227,10.82608 -22.00522,13.97135 -36.38454,28.73939 -43.87748,45.06382 -2.86343,6.23836 -3.2651,8.45735 -3.35818,18.55156 -0.0997,10.81965 0.0664,11.6875 2.95338,15.40363 4.23428,5.45069 9.1666,7.49266 18.09844,7.49266 13.24208,0 30.95795,-3.62459 47.54835,-9.72819 10.68162,-3.92977 41.53326,-17.70328 45.4461,-20.28914 8.03708,-5.31134 28.12682,-12.05914 37.19314,-12.49254 6.20301,-0.29652 7.17872,-0.12194 10.09494,1.80516 2.96212,1.95754 3.17112,2.49929 2.53509,6.57165 -0.74579,4.7755 -7.92575,15.47691 -10.88799,16.22811 -0.98412,0.24957 -2.50492,-0.3805 -3.61088,-1.496 -1.48835,-1.50114 -2.94789,-1.92716 -6.60259,-1.92716 -3.92621,0 -7.28642,1.15454 -20.59152,7.07504 -8.74484,3.89124 -16.54935,7.44591 -17.34337,7.89929 -0.79401,0.45334 -1.81904,0.82427 -2.27778,0.82427 -0.45877,0 -2.49856,0.83258 -4.53287,1.85016 -7.47382,3.73849 -35.05117,13.92883 -44.27768,16.36142 -17.50466,4.61514 -31.70748,6.52627 -49.06927,6.60274 -12.09829,0.0533 -16.9075,-0.24707 -21.71937,-1.35655 -8.35689,-1.92683 -16.15793,-6.62094 -19.47715,-11.71994 -2.34978,-3.60973 -2.62773,-5.16989 -2.24341,-12.59093 0.43259,-8.35225 0.4088,-8.44137 -1.70136,-6.37604 -1.17705,1.15204 -7.12252,7.08581 -13.21217,13.1862 -26.22934,26.27552 -48.02786,40.42239 -63.60076,41.27586 -4.92744,0.27003 -7.64509,-0.0494 -11.83904,-1.39099 -10.3256,-3.30331 -15.02751,-10.65778 -15.15047,-23.69742 l -0.0784,-8.32074 -3.18401,2.71826 c -18.71649,15.9787 -28.65866,23.42988 -48.19516,36.1198 -15.6398,10.15885 -19.07893,12.01257 -23.32866,12.57425 -10.36893,1.37048 -11.66431,-12.68293 -3.40051,-36.89131 1.53986,-4.51087 2.66704,-8.29091 2.50488,-8.40009 -0.16211,-0.10911 -6.16607,5.04247 -13.34204,11.44813 -26.0444,23.24864 -51.662862,41.51206 -64.106926,45.7019 -5.976508,2.01224 -11.748657,2.34532 -16.178286,0.9336 z"
     id="path569" />
</svg>
